<svg xmlns="http://www.w3.org/2000/svg" xmlns:xlink="http://www.w3.org/1999/xlink" viewBox="0 0 196.33 65.27"><defs><style>.cls-1,.cls-4{fill:none;}.cls-2{clip-path:url(#clip-path);}.cls-3{fill:#fff;}.cls-4{stroke:#1d1d1b;}.cls-5,.cls-6{fill:#1d1d1b;}.cls-6{font-size:12px;font-family:Helvetica-Light, Helvetica;font-weight:300;}</style><clipPath id="clip-path" transform="translate(-9 -7)"><rect class="cls-1" width="214.33" height="74.41"/></clipPath></defs><g id="Ebene_2" data-name="Ebene 2"><g id="Ebene_1-2" data-name="Ebene 1"><g class="cls-2"><path class="cls-3" d="M171.48,7.5c-21,0-34.94,9.4-64.31,9.4S63.88,7.5,42.85,7.5c-44.47,0-44.47,64.27,0,64.27,21,0,34.94-9.4,64.32-9.4s43.29,9.4,64.31,9.4c44.47,0,44.47-64.27,0-64.27" transform="translate(-9 -7)"/><path class="cls-4" d="M171.48,7.5c-21,0-34.94,9.4-64.31,9.4S63.88,7.5,42.85,7.5c-44.47,0-44.47,64.27,0,64.27,21,0,34.94-9.4,64.32-9.4s43.29,9.4,64.31,9.4C216,71.77,216,7.5,171.48,7.5Z" transform="translate(-9 -7)"/><path class="cls-5" d="M33.77,46.83a7.94,7.94,0,1,0-7.94-7.94,7.95,7.95,0,0,0,7.94,7.94" transform="translate(-9 -7)"/></g><text class="cls-6" transform="translate(44.05 35.53)">sound on/off</text></g></g></svg>