<?xml version="1.0" encoding="UTF-8"?><svg version="1.1" viewBox="0 0 196 65" xmlns="http://www.w3.org/2000/svg"><defs><mask id="a"><rect width="230.46" height="99.39" fill="#FFF" transform="translate(-17.19-17.19)"/></mask></defs><g transform="scale(.99959)"><g mask="url(#a)"><path fill="#FFF" d="M50.91 17.56c21 0 34.94 9.4 64.32 9.4 29.38 0 43.29-9.4 64.32-9.4 44.46 0 44.46 64.27 0 64.27 -21 0-35-9.4-64.32-9.4 -29.32 0-43.29 9.4-64.32 9.4 -44.46 0-44.46-64.27 0-64.27" transform="translate(-17.19-17.19)"/><path fill="none" stroke="#1D1D1B" stroke-width=".75" d="M50.91 17.56c21 0 34.94 9.4 64.32 9.4 29.38 0 43.29-9.4 64.32-9.4 44.46 0 44.46 64.27 0 64.27 -21 0-35-9.4-64.32-9.4 -29.32 0-43.29 9.4-64.32 9.4 -44.46 0-44.46-64.27 0-64.27Z" transform="translate(-17.19-17.19)"/><path fill="#1D1D1B" d="M41.83 56.89v0c4.3851.0054 7.9444-3.5451 7.9498-7.9302 .0054-4.3852-3.5451-7.9445-7.9302-7.9499 -4.3852-.0055-7.9445 3.545-7.9499 7.9301 -.0001.0199 0 .0398.0001.0598v0c-.0056 4.3796 3.5403 7.9344 7.9199 7.9399 .0033 0 .0066 0 .01 0" transform="translate(-17.19-17.19)"/><circle cx="24.65" cy="31.76" r="9.88" fill="none" stroke="#1D1D1B" stroke-width=".75"/></g><g stroke-width=".75" fill="none" stroke="#1D1D1B"><line x1="111.39" x2="38.52" y1="32.51" y2="32.51"/><polyline points="42.26 35.98 38.52 32.51 42.26 29.04"/></g></g></svg>